<svg xmlns="http://www.w3.org/2000/svg" width="1024" height="1024" viewBox="0 0 1024 1024">
  <rect width="1024" height="1024" fill="#0B171B"/>
  <circle cx="512" cy="512" r="366" fill="#102723"/>
  <g fill="none" stroke="#34B8AA" stroke-linecap="round" stroke-linejoin="round">
    <path d="M512 237C645 237 751 349 751 510C751 681 650 787 512 787C374 787 273 681 273 510C273 349 379 237 512 237Z" stroke-width="22" opacity="0.32"/>
    <path d="M512 286C620 286 706 377 706 509C706 647 624 738 512 738C400 738 318 647 318 509C318 377 404 286 512 286Z" stroke-width="22" opacity="0.52"/>
    <path d="M512 335C594 335 661 405 661 508C661 614 598 689 512 689C426 689 363 614 363 508C363 405 430 335 512 335Z" stroke-width="22" opacity="0.76"/>
    <path d="M512 384C569 384 616 433 616 507C616 581 571 640 512 640C453 640 408 581 408 507C408 433 455 384 512 384Z" stroke-width="22"/>
  </g>
  <circle cx="512" cy="512" r="48" fill="#F1A45F"/>
</svg>
